#!OML:ASF F:\VICON\USERDATA\INSTALL\rory3\rory3.ASF
:FULLY-SPECIFIED
:DEGREES
2084
root -0.339622 15.1542 -1.31536 4.10721 -7.52996 -0.281678
lowerback 21.9329 -0.399808 -11.4436
upperback 3.6212 -4.11286 -9.46896
thorax -8.22727 -1.79028 -2.82079
lowerneck -10.0967 5.68647 -5.09923
upperneck 8.54436 6.81602 16.8848
head 3.41418 4.14443 6.43166
rclavicle -2.38542e-014 -9.85972e-014
rhumerus -26.0272 -31.7873 22.3577
rradius 54.689
rwrist -32.9385
rhand 3.9076 12.6617
rfingers 7.12502
rthumb 29.3275 -15.0453
lclavicle -2.38542e-014 -9.85972e-014
lhumerus -24.4976 48.5762 -6.15742
lradius 41.9013
lwrist 48.0354
lhand -0.845312 15.219
lfingers 7.12502
lthumb 24.7805 43.6336
rfemur -30.5322 8.41101 18.1471
rtibia 50.3764
rfoot -19.2038 -5.46494
rtoes -15.1612
lfemur -25.1241 6.34645 -12.5802
ltibia 45.3295
lfoot -17.2797 -3.24578
ltoes -16.7373
2085
root -0.33058 15.1647 -1.31227 4.07497 -7.58042 -0.165471
lowerback 21.8098 -0.389756 -11.2861
upperback 3.64699 -4.01664 -9.26943
thorax -8.12816 -1.75011 -2.70976
lowerneck -10.1229 5.62397 -5.11726
upperneck 8.58864 6.7228 16.9098
head 3.44113 4.10087 6.44264
rclavicle 2.70347e-014 5.08889e-014
rhumerus -25.7946 -32.1619 22.1641
rradius 54.7568
rwrist -32.853
rhand 3.84153 12.4426
rfingers 7.12502
rthumb 29.2644 -15.2754
lclavicle 2.70347e-014 5.08889e-014
lhumerus -24.3486 48.6896 -6.17948
lradius 41.8748
lwrist 47.999
lhand -0.888292 15.2156
lfingers 7.12502
lthumb 24.7393 43.6359
rfemur -30.4209 8.49755 17.9679
rtibia 50.2237
rfoot -19.1453 -5.43474
rtoes -15.2022
lfemur -24.9611 6.28861 -12.7482
ltibia 45.1137
lfoot -17.2121 -3.15625
ltoes -16.505
2086
root -0.320898 15.1735 -1.31074 4.08596 -7.59779 0.0274547
lowerback 21.671 -0.401084 -11.1743
upperback 3.63605 -3.96307 -9.08152
thorax -8.05908 -1.72711 -2.57601
lowerneck -10.2025 5.49295 -5.19002
upperneck 8.8175 6.52227 16.9165
head 3.5429 4.00945 6.46266
rclavicle -4.77083e-015 1.27222e-014
rhumerus -25.4932 -32.5637 21.9767
rradius 54.8054
rwrist -32.7741
rhand 3.82006 12.3987
rfingers 7.12502
rthumb 29.2439 -15.3228
lclavicle -4.77083e-015 1.27222e-014
lhumerus -24.3128 48.3208 -6.17985
lradius 42.0868
lwrist 48.4572
lhand -1.26348 15.0914
lfingers 7.12502
lthumb 24.3796 43.5606
rfemur -30.3961 8.54871 17.6922
rtibia 50.0983
rfoot -19.1405 -5.38976
rtoes -15.0897
lfemur -24.864 6.16704 -13.0147
ltibia 44.8707
lfoot -17.1352 -3.02833
ltoes -16.4264
2087
root -0.311093 15.1801 -1.30949 4.11076 -7.61102 0.216257
lowerback 21.5241 -0.407179 -11.0437
upperback 3.60077 -3.90238 -8.90333
thorax -8.01564 -1.70012 -2.46637
lowerneck -10.0302 5.42013 -5.04532
upperneck 8.88308 6.40828 16.6748
head 3.55979 3.93914 6.35264
rclavicle 3.65764e-014 1.24042e-013
rhumerus -25.2147 -32.7753 21.8189
rradius 54.7954
rwrist -32.8255
rhand 3.88796 12.3784
rfingers 7.12502
rthumb 29.3087 -15.3318
lclavicle 3.65764e-014 1.24042e-013
lhumerus -24.2247 48.1472 -6.16933
lradius 42.192
lwrist 48.6696
lhand -1.08563 15.061
lfingers 7.12502
lthumb 24.5501 43.5071
rfemur -30.4031 8.55381 17.4338
rtibia 49.9803
rfoot -19.1157 -5.44662
rtoes -15.3852
lfemur -24.798 6.0717 -13.2828
ltibia 44.6371
lfoot -17.0667 -2.89198
ltoes -16.5714
2088
root -0.303251 15.1882 -1.30732 4.05092 -7.60689 0.332431
lowerback 21.4593 -0.376205 -10.8818
upperback 3.61812 -3.78946 -8.68341
thorax -7.95753 -1.64975 -2.34049
lowerneck -9.85223 5.35448 -4.94668
upperneck 8.8402 6.32075 16.484
head 3.53675 3.87979 6.26335
rclavicle -4.77083e-015 4.77083e-014
rhumerus -24.9404 -33.0203 21.7425
rradius 54.6988
rwrist -32.742
rhand 3.98035 12.4855
rfingers 7.12502
rthumb 29.3969 -15.2092
lclavicle -4.77083e-015 4.77083e-014
lhumerus -23.9667 48.3325 -6.03145
lradius 42.1214
lwrist 48.4733
lhand -0.6069 15.1367
lfingers 7.12502
lthumb 25.0089 43.5197
rfemur -30.2756 8.59561 17.2773
rtibia 49.8389
rfoot -19.0714 -5.49349
rtoes -15.4417
lfemur -24.6316 5.96302 -13.4478
ltibia 44.4252
lfoot -17.0389 -2.73156
ltoes -16.8482
2089
root -0.294442 15.1979 -1.30392 4.02366 -7.54577 0.252173
lowerback 21.4135 -0.420284 -10.5069
upperback 3.64302 -3.72395 -8.41549
thorax -7.91033 -1.62669 -2.26547
lowerneck -9.94742 5.21211 -5.07211
upperneck 9.0777 6.10738 16.5484
head 3.64111 3.78417 6.31029
rclavicle 7.95139e-015 0
rhumerus -24.5777 -33.4226 21.5667
rradius 54.6205
rwrist -32.539
rhand 4.01783 12.6265
rfingers 7.12502
rthumb 29.4327 -15.062
lclavicle 7.95139e-015 0
lhumerus -23.8746 48.4896 -6.03837
lradius 42.0949
lwrist 48.2883
lhand -0.586986 15.0702
lfingers 7.12502
lthumb 25.028 43.4506
rfemur -30.1039 8.6452 17.3276
rtibia 49.6696
rfoot -19.0343 -5.50986
rtoes -15.2463
lfemur -24.4836 5.86265 -13.3974
ltibia 44.2285
lfoot -17.0028 -2.64889
ltoes -17.0794
